#N canvas 426 0 986 863 10;
#X msg 500 380 disconnect;
#X obj 500 458 netsend 1;
#X floatatom 500 485 0 0 0 0 - - -;
#X text 575 275 UDP;
#X text 575 381 Close the connection;
#X msg 500 299 connect localhost 5000;
#X msg 500 326 connect molloy 5001;
#X msg 500 353 connect bug 5000;
#X obj 287 174 netreceive;
#X floatatom 646 521 5 0 0 0 - - -, f 5;
#X obj 661 595 pack i i i;
#X floatatom 696 522 5 0 0 0 - - -, f 5;
#X floatatom 749 519 5 0 0 0 - - -, f 5;
#X text 537 408;
#X obj 559 643 print;
#X obj 419 543 t b b b;
#X obj 388 517 bng 15 250 50 0 empty empty empty 17 7 0 10 -262144
-1 -1;
#X msg 595 419 send foo \$1 \$2 \$3;
#X connect 0 0 1 0;
#X connect 1 0 2 0;
#X connect 5 0 1 0;
#X connect 6 0 1 0;
#X connect 7 0 1 0;
#X connect 9 0 10 0;
#X connect 10 0 14 0;
#X connect 10 0 17 0;
#X connect 11 0 10 1;
#X connect 12 0 10 2;
#X connect 15 0 10 0;
#X connect 16 0 15 0;
#X connect 17 0 1 0;
